<?xml version="1.0" encoding="utf-8"?>
<!-- Generator: Adobe Illustrator 25.2.1, SVG Export Plug-In . SVG Version: 6.00 Build 0)  -->
<svg version="1.1" id="Calque_1" xmlns="http://www.w3.org/2000/svg" xmlns:xlink="http://www.w3.org/1999/xlink" x="0px" y="0px"
	 viewBox="0 0 957.1 236" style="enable-background:new 0 0 957.1 236;" xml:space="preserve">
<style type="text/css">
	.st0{fill:#F59100;}
	.st1{clip-path:url(#SVGID_2_);fill:#FFFFFF;}
	.st2{fill:#4F5D5B;}
</style>
<rect x="47.2" y="47.1" class="st0" width="141.7" height="141.7"/>
<g>
	<defs>
		<rect id="SVGID_1_" width="957.1" height="236"/>
	</defs>
	<clipPath id="SVGID_2_">
		<use xlink:href="#SVGID_1_"  style="overflow:visible;"/>
	</clipPath>
	<path class="st1" d="M103.4,117.8c0,7.3-1.6,12.9-9.8,12.9c-9.2,0-10.2-6.6-10.2-11.9V76.9l-11.8,2.6v41
		c0,15.6,10.9,21.6,21.4,21.6c13.7,0,22.1-8.8,22.1-19.9V76.9l-11.8,2.6V117.8z"/>
	<path class="st1" d="M144.9,94c-4.7,0-9.1,1.4-12.7,4v-6.7L120.8,94v62.6l11.3-2.6v-16c3.7,2.5,8,4,12.8,4
		c12.8,0,23.1-10.8,23.1-24C167.9,104.7,157.6,94,144.9,94 M144.1,131.7c-7.6,0-13.1-6.3-13.1-13.7c0-7.4,5.5-13.7,13.1-13.7
		c7.6,0,13.1,6.3,13.1,13.7C157.2,125.4,151.7,131.7,144.1,131.7"/>
</g>
<g>
	<path class="st2" d="M332.5,186.8c-6,3.5-16.7,5.4-23.1,5.4c-43.8,0-72.9-32.8-72.9-74.1c0-40.9,29.7-74.1,72.1-74.1
		c6.8,0,17.1,1.7,22.9,5.2l4.5,32.8c-7.4-6-16.9-10.1-28.7-10.1c-25,0-42.3,22.3-42.3,46.3c0,26.4,19.8,46.3,43.6,46.3
		c11.4,0,20.2-5.8,27.7-11.8L332.5,186.8z"/>
	<path class="st2" d="M367.2,83.5c9.9-1.9,20.2-2.9,30.4-2.9c18.8,0,39.4,8.3,39.4,29.5v78.7l-24,2.5v-9.1
		c-7.2,6.2-16.5,9.9-26.2,9.9c-22.3,0-39.6-13-39.6-37c0-19,15.9-35.7,35.5-35.7c11.4,0,18.8,1.9,28.9,7c0.2-2.3,0.6-4.3,0.6-7
		c0-14.2-10.3-16.9-22.5-16.9c-10.3,0-20.2,2.5-29.7,6.2L367.2,83.5z M392.6,170.3c9.3,0,19.2-5.6,19.2-15.1
		c0-9.3-9.9-15.1-19.2-15.1c-9.3,0-19.2,5.8-19.2,15.1C373.4,164.7,383.3,170.3,392.6,170.3z"/>
	<path class="st2" d="M535.9,177.5c-10.9,10.9-18.2,14.7-32.6,14.7c-29.9,0-51.8-26.6-51.8-55.8s21.9-55.8,51.8-55.8
		c10.5,0,21.5,3.1,31.2,11.2V47.2l26.2-3.3v145l-24.8,2.5V177.5z M506.6,168.2c17.6,0,30.4-14.7,30.4-31.8
		c0-17.1-12.8-31.8-30.4-31.8c-17.6,0-30.4,14.7-30.4,31.8C476.3,153.5,489.1,168.2,506.6,168.2z"/>
	<path class="st2" d="M580.9,47.2l26.2-3.3v50h0.4c7.4-9.9,16.1-13.2,30.8-13.2c21.7,0,36.1,13.8,36.1,36.1v72.1l-26.2,1.7v-66.7
		c0-11.2-5.2-20.4-16.9-20.4c-16.5,0-24.2,12.6-24.2,25.8v59.7l-26.2,1.7V47.2z"/>
	<path class="st2" d="M747,80.6c31,0,58.2,24.2,58.2,55.8c0,31.6-27.3,55.8-58.2,55.8c-31,0-58.2-24.2-58.2-55.8
		C688.7,104.8,716,80.6,747,80.6z M747,168.2c17.8,0,33.5-13.8,33.5-31.8c0-18-15.7-31.8-33.5-31.8c-17.8,0-33.5,13.8-33.5,31.8
		C713.5,154.4,729.2,168.2,747,168.2z"/>
	<path class="st2" d="M896.1,112.4c-6.8-4.1-14.2-7.8-22.3-7.8c-19.4,0-33.9,12.8-33.9,31.8c0,18.2,16.5,31.8,30.1,31.8
		c10.7,0,16.7-2.5,25.2-8.1l14.5,18.8c-10.1,10.1-25.8,13.2-39.2,13.2c-27.1,0-56.8-21.3-56.8-56.6c0-31.8,27.1-54.9,57.6-54.9
		c15.3,0,27.1,4.7,38.6,12.2L896.1,112.4z"/>
</g>
</svg>
