<?xml version="1.0" encoding="utf-8"?>
<!-- Generator: Adobe Illustrator 25.2.1, SVG Export Plug-In . SVG Version: 6.00 Build 0)  -->
<svg version="1.1" id="Calque_1" xmlns="http://www.w3.org/2000/svg" xmlns:xlink="http://www.w3.org/1999/xlink" x="0px" y="0px"
	 viewBox="0 0 1761.8 273.2" style="enable-background:new 0 0 1761.8 273.2;" xml:space="preserve">
<style type="text/css">
	.st0{fill:#F59100;}
	.st1{clip-path:url(#SVGID_2_);fill:#FFFFFF;}
	.st2{fill:#4F5D5B;}
</style>
<rect x="47.2" y="47.2" class="st0" width="141.7" height="141.7"/>
<g>
	<defs>
		<rect id="SVGID_1_" width="1761.8" height="273.2"/>
	</defs>
	<clipPath id="SVGID_2_">
		<use xlink:href="#SVGID_1_"  style="overflow:visible;"/>
	</clipPath>
	<path class="st1" d="M103.4,117.8c0,7.3-1.6,12.9-9.8,12.9c-9.2,0-10.2-6.6-10.2-11.9V76.9l-11.8,2.6v41
		c0,15.6,10.9,21.6,21.4,21.6c13.7,0,22.1-8.8,22.1-19.9V76.9l-11.8,2.6V117.8z"/>
	<path class="st1" d="M144.9,94c-4.7,0-9.1,1.4-12.7,4v-6.7l-11.3,2.7v62.6l11.3-2.6v-16c3.7,2.5,8,4,12.8,4
		c12.8,0,23.1-10.8,23.1-24C167.9,104.8,157.6,94,144.9,94 M144.1,131.7c-7.6,0-13.1-6.3-13.1-13.7c0-7.4,5.5-13.7,13.1-13.7
		c7.6,0,13.1,6.3,13.1,13.7C157.2,125.4,151.7,131.7,144.1,131.7"/>
</g>
<g>
	<path class="st2" d="M332.5,186.8c-6,3.5-16.7,5.4-23.1,5.4c-43.8,0-72.9-32.8-72.9-74.1c0-40.9,29.7-74.1,72.1-74.1
		c6.8,0,17.1,1.7,22.9,5.2l4.5,32.8c-7.4-6-16.9-10.1-28.7-10.1c-25,0-42.3,22.3-42.3,46.3c0,26.4,19.8,46.3,43.6,46.3
		c11.4,0,20.2-5.8,27.7-11.8L332.5,186.8z"/>
	<path class="st2" d="M354,47.2l26.2-3.3v50h0.4c7.4-9.9,16.1-13.2,30.8-13.2c21.7,0,36.1,13.8,36.1,36.1v72.1l-26.2,1.7v-66.7
		c0-11.2-5.2-20.4-16.9-20.4c-16.5,0-24.2,12.6-24.2,25.8v59.7l-26.2,1.7V47.2z"/>
	<path class="st2" d="M563.4,178.4c-12.8,8.9-28.5,13.8-44,13.8c-31,0-58.2-24.2-58.2-55.8c0-31.6,27.3-55.8,58.2-55.8
		c21.7,0,40.7,13,50,32.4l-71.9,44.6c2.1,4.3,7.8,10.5,20.4,10.5c13.4,0,23.3-5.2,34.3-12.4L563.4,178.4z M514.7,67.3l-30.8-30.1h32
		l19.4,30.1H514.7z M536.3,109.4c-5-5-11.4-6.8-18.4-6.8c-16.5,0-29.7,13.4-31.2,29.5c0,2.3,0,4.5,0.4,7L536.3,109.4z"/>
	<path class="st2" d="M661.1,84l24.8-1.7v140.4l-26.2,3.3v-45c-9.7,8.1-20.7,11.2-31,11.2c-30.6,0-52-28.5-52-55.1
		c0-29.7,21.9-56.4,51.8-56.4c14.5,0,21.7,3.7,32.6,14.7V84z M631.8,168.2c17.6,0,30.4-14.7,30.4-31.8c0-17.1-12.8-31.8-30.4-31.8
		c-17.6,0-30.4,14.7-30.4,31.8C601.4,153.6,614.2,168.2,631.8,168.2z"/>
	<path class="st2" d="M799.6,188.9l-24.8,1.7v-13.6h-0.4c-8.9,12-17.6,15.3-32.2,15.3c-21.7,0-36.1-13.8-36.1-36.1V84l26.2-3.3V149
		c0,11.2,5.2,20.4,16.9,20.4c16.5,0,24.2-12.6,24.2-25.8V84l26.2-3.3V188.9z"/>
	<path class="st2" d="M915.5,178.4c-12.8,8.9-28.5,13.8-44,13.8c-31,0-58.2-24.2-58.2-55.8c0-31.6,27.3-55.8,58.2-55.8
		c21.7,0,40.7,13,50,32.4l-71.9,44.6c2.1,4.3,7.8,10.5,20.4,10.5c13.4,0,23.3-5.2,34.3-12.4L915.5,178.4z M888.4,109.4
		c-5-5-11.4-6.8-18.4-6.8c-16.5,0-29.7,13.4-31.2,29.5c0,2.3,0,4.5,0.4,7L888.4,109.4z"/>
	<path class="st2" d="M969,47.2h43c34.9,0,65.3,31,65.3,69.8c0,47.5-37.2,71.9-70.6,71.9H969V47.2z M1010.7,162.7
		c25,0,38-23.1,38-45.6c0-24.2-16.5-43.6-39.2-43.6h-13.2v89.2H1010.7z"/>
	<path class="st2" d="M1145.1,80.7c31,0,58.2,24.2,58.2,55.8c0,31.6-27.3,55.8-58.2,55.8s-58.2-24.2-58.2-55.8
		C1086.9,104.9,1114.1,80.7,1145.1,80.7z M1145.1,168.2c17.8,0,33.5-13.8,33.5-31.8c0-18-15.7-31.8-33.5-31.8s-33.5,13.8-33.5,31.8
		C1111.7,154.4,1127.3,168.2,1145.1,168.2z"/>
	<path class="st2" d="M1216.1,84l24.8-2.5v13.4c8.1-9.1,14.2-14.2,26.8-14.2c10.3,0,19.6,4.5,27.1,13.4c9.3-9.1,16.9-13.4,29.5-13.4
		c16.1,0,34.1,9.3,34.1,33.5v74.8l-26.2,1.7v-71.9c0.8-12.8-6.4-15.3-15.3-15.3c-10.7,0-16.5,8.1-16.5,21.1v64.4l-26.2,1.7v-71.9
		c0.8-12.8-6.4-15.3-15.3-15.3c-10.7,0-16.5,8.1-16.5,21.1v64.4l-26.2,1.7V84z"/>
	<path class="st2" d="M1407.6,55.9l-17.8,17.6L1372,55.9l17.8-17.6L1407.6,55.9z M1376.2,84l26.2-2.5v107.4l-26.2,1.7V84z"/>
	<path class="st2" d="M1498.2,112.5c-6.8-4.1-14.2-7.8-22.3-7.8c-19.4,0-33.9,12.8-33.9,31.8c0,18.2,16.5,31.8,30.1,31.8
		c10.7,0,16.7-2.5,25.2-8.1l14.5,18.8c-10.1,10.1-25.8,13.2-39.2,13.2c-27.1,0-56.8-21.3-56.8-56.6c0-31.8,27.1-54.9,57.6-54.9
		c15.3,0,27.1,4.7,38.6,12.2L1498.2,112.5z"/>
	<path class="st2" d="M1554.2,55.9l-17.8,17.6l-17.8-17.6l17.8-17.6L1554.2,55.9z M1522.8,84l26.2-2.5v107.4l-26.2,1.7V84z"/>
	<path class="st2" d="M1567.4,190.5V47.2l26.2-3.3v145L1567.4,190.5z"/>
	<path class="st2" d="M1708.6,178.4c-12.8,8.9-28.5,13.8-44,13.8c-31,0-58.2-24.2-58.2-55.8c0-31.6,27.3-55.8,58.2-55.8
		c21.7,0,40.7,13,50,32.4l-71.9,44.6c2.1,4.3,7.8,10.5,20.4,10.5c13.4,0,23.3-5.2,34.3-12.4L1708.6,178.4z M1681.6,109.4
		c-5-5-11.4-6.8-18.4-6.8c-16.5,0-29.7,13.4-31.2,29.5c0,2.3,0,4.5,0.4,7L1681.6,109.4z"/>
</g>
</svg>
